<svg width="75" height="50" viewBox="0 0 75 50" fill="none" xmlns="http://www.w3.org/2000/svg">
<path fill-rule="evenodd" clip-rule="evenodd" d="M17.3519 10.0541C16.6126 10.795 15.938 11.6031 15.3496 12.4738C15.0872 12.8614 14.6142 13.6919 14.4924 14.4268C14.3597 15.2095 14.5747 15.896 15.2365 16.3014C16.1155 16.839 16.8509 16.8491 17.4377 16.6132C18.0027 16.3868 18.47 15.8905 18.7951 15.2009C19.4157 13.8829 19.505 11.7999 19.3315 10.5932C20.112 9.90713 20.9567 9.29588 21.8511 8.76395C28.5129 4.80237 37.6299 7.188 44.213 14.4335C46.5169 16.9702 47.3229 21.9753 47.5231 27.322C47.8359 35.6471 46.5459 44.8143 46.2536 47.507C46.183 48.172 46.214 48.5725 46.2426 48.6543C46.3752 49.056 46.6563 49.1801 46.8553 49.2345C47.1437 49.3101 47.3815 49.2731 47.5774 49.1906C47.8424 49.0772 48.0703 48.8586 48.1968 48.5032C48.2651 48.3068 48.3013 48.0287 48.3181 47.7305C48.3277 47.5234 48.3039 47.2945 48.3575 47.1498C48.705 46.2238 49.1064 45.3245 49.5013 44.418C50.8211 41.3702 52.4387 38.5445 54.2093 35.7345C59.8343 26.8058 65.3411 17.3367 73.91 10.8763C74.2942 10.5864 74.3731 10.0384 74.0813 9.65346C73.7931 9.2688 73.2453 9.19208 72.8575 9.48207C64.1172 16.0699 58.4679 25.6983 52.7306 34.8037C51.225 37.1941 49.827 39.5965 48.6219 42.13C49.0923 37.5156 49.5653 31.114 49.1713 25.3849C48.8212 20.2897 47.7451 15.7256 45.5058 13.2595C38.2943 5.32227 28.253 2.92305 20.9578 7.26327C20.1775 7.72792 19.4279 8.2476 18.7231 8.8199C15.6317 2.01153 8.1073 -1.21958 1.0236 1.35257C0.568745 1.51701 0.335868 2.0184 0.499505 2.47124C0.666625 2.92435 1.16674 3.15845 1.6216 2.99402C8.00486 0.676348 14.7888 3.74208 17.3519 10.0541ZM17.6825 12.2772C17.3685 12.653 17.0743 13.0451 16.7963 13.4525C16.6491 13.6713 16.391 14.0939 16.2625 14.5174C16.2335 14.6167 16.2174 14.7745 16.2116 14.8476C16.4425 14.9852 16.626 15.0574 16.7854 14.9927C16.9846 14.9133 17.0999 14.6982 17.2139 14.4568C17.5007 13.8511 17.6435 13.0292 17.6825 12.2772Z" fill="#FFD338"/>
</svg>
